<svg xmlns="http://www.w3.org/2000/svg" height="300px" width="300px" fill="#000000" data-name="Layer 1" viewBox="0 0 70 70" x="0px" y="0px"><title>Artboard 10@5x</title><path d="M65.66,56,48.49,38.82a24.57,24.57,0,0,0,3.19-12.13,24.84,24.84,0,0,0-.39-4.34l-1.76,1.76a22.06,22.06,0,0,1,.15,2.58,22.73,22.73,0,1,1-2-9.24l1.51-1.51A24.71,24.71,0,1,0,38.39,48.6L55.72,65.93a7,7,0,0,0,12-5A6.93,6.93,0,0,0,65.66,56Z"/><path d="M41.6,26.39a5.11,5.11,0,0,0-5.69,0l-4.58-4.63a5.14,5.14,0,1,0-8.62-.09l-4.78,4.73a5.08,5.08,0,0,0-2.85-.87,5.14,5.14,0,1,0,4.27,2.28l4.74-4.69a5.09,5.09,0,0,0,2.95.95,5.16,5.16,0,0,0,2.88-.88l4.57,4.61a5.14,5.14,0,1,0,8.53,0L55.79,15a5.13,5.13,0,1,0-2.28-4.25,5,5,0,0,0,.87,2.84Z"/></svg>
