<svg xmlns="http://www.w3.org/2000/svg" width="39.576" height="40.568" viewBox="0 0 39.576 40.568"><defs><style>.a{fill:#191919;}</style></defs><path class="a" d="M30.753,21.256l-8.269,8.225-1.972-1.963a.888.888,0,1,0-1.256,1.256l2.6,2.582a.886.886,0,0,0,1.247,0l8.906-8.844a.888.888,0,0,0-1.256-1.256Z" transform="translate(-3.851 -3.525)"/><path class="a" d="M30,25.244a.884.884,0,0,0-.522,1.132,7.075,7.075,0,1,1-3.352-3.8.884.884,0,1,0,.822-1.565,8.844,8.844,0,1,0,4.192,4.758A.884.884,0,0,0,30,25.244Z" transform="translate(-3.057 -3.657)"/><path class="a" d="M35.454,1.69h-3.3V.845a.825.825,0,1,0-1.649,0V1.69H20.613V.845a.825.825,0,1,0-1.649,0V1.69H9.07V.845a.825.825,0,1,0-1.649,0V1.69h-3.3A4.175,4.175,0,0,0,0,5.916V36.342a4.175,4.175,0,0,0,4.123,4.226H35.454a4.175,4.175,0,0,0,4.123-4.226V5.916A4.175,4.175,0,0,0,35.454,1.69Zm2.474,34.652a2.505,2.505,0,0,1-2.474,2.536H4.123a2.505,2.505,0,0,1-2.474-2.536V5.916A2.505,2.505,0,0,1,4.123,3.381h3.3V5.916a.825.825,0,1,0,1.649,0V3.381h9.894V5.916a.825.825,0,1,0,1.649,0V3.381h9.894V5.916a.825.825,0,1,0,1.649,0V3.381h3.3a2.505,2.505,0,0,1,2.474,2.536Z" transform="translate(0 0)"/><path class="a" d="M33.395,13H7.8a.889.889,0,0,0,0,1.769h25.6a.889.889,0,0,0,0-1.769Z" transform="translate(-0.809 -2.035)"/></svg>