<svg xmlns="http://www.w3.org/2000/svg" xmlns:xlink="http://www.w3.org/1999/xlink" width="55.513" height="56.804" viewBox="0 0 55.513 56.804"><defs><style>.a{clip-path:url(#a);}.b{fill:#fbbc05;}.c{fill:#ea4335;}.d{fill:#34a853;}.e{fill:#4285f4;}</style><clipPath id="a"><path d="M56.868,25.238H30.4V36.212H45.636c-1.42,6.971-7.359,10.974-15.234,10.974a16.783,16.783,0,1,1,0-33.566,16.419,16.419,0,0,1,10.457,3.744L49.122,9.1A28.384,28.384,0,1,0,30.4,58.8c14.2,0,27.111-10.328,27.111-28.4A23.563,23.563,0,0,0,56.868,25.238Z" transform="translate(-2 -2)"/></clipPath></defs><g class="a" transform="translate(0 0)"><path class="b" d="M0,44.566V11L21.947,27.783Z" transform="translate(-2.582 0.619)"/></g><g class="a" transform="translate(0 0)"><path class="c" d="M0,14.2,21.947,30.984l9.037-7.875,30.984-5.035V0H0Z" transform="translate(-2.582 -2.582)"/></g><g class="a" transform="translate(0 0)"><path class="d" d="M0,47.767,38.73,18.074l10.2,1.291L61.968,0V61.968H0Z" transform="translate(-2.582 -2.582)"/></g><g class="a" transform="translate(0 0)"><path class="e" d="M58.185,58.767,18.164,27.783,13,23.91,58.185,11Z" transform="translate(1.201 0.619)"/></g></svg>