<svg xmlns="http://www.w3.org/2000/svg" width="52.427" height="52.425" viewBox="0 0 52.427 52.425"><defs><style>.a{fill:#337fff;}.b{fill:#fff;}</style></defs><path class="a" d="M399.925,148.22h-8.888l-4.056-1.339-4.022,1.339h-8.921a13.27,13.27,0,0,1-13.27-13.269V109.065a13.27,13.27,0,0,1,13.27-13.27h25.886a13.27,13.27,0,0,1,13.27,13.27v25.886A13.27,13.27,0,0,1,399.925,148.22Z" transform="translate(-360.768 -95.795)"/><path class="b" d="M378.07,113.047v5.706H371.5v7.485h6.575v18.727h8.091V126.237h6.034l1.148-7.485h-7.182v-4.858c0-2.047,1-4.044,4.22-4.044h3.266v-6.371a39.826,39.826,0,0,0-5.8-.506C381.935,102.973,378.07,106.558,378.07,113.047Z" transform="translate(-355.902 -92.539)"/></svg>