<svg xmlns="http://www.w3.org/2000/svg" viewBox="0 0 26.27 26.27"><defs><style>.cls-1{stroke:#000;stroke-width:0.5px;}</style></defs><g id="Layer_2" data-name="Layer 2"><g id="Layer_1-2" data-name="Layer 1"><path class="cls-1" d="M3,.25a2.7,2.7,0,0,0,0,5.4,2.73,2.73,0,0,0,1.37-.37l.28-.17L7.12,7.63l-.25.29a8.14,8.14,0,0,0,0,10.43l.25.3L4.6,21.16,4.32,21A2.6,2.6,0,0,0,3,20.62a2.7,2.7,0,1,0,2.69,2.7A2.73,2.73,0,0,0,5.28,22l-.16-.28,2.51-2.52.29.25a8.14,8.14,0,0,0,10.43,0l.3-.25,2.51,2.52L21,22a2.61,2.61,0,0,0-.38,1.36,2.7,2.7,0,1,0,2.7-2.69A2.73,2.73,0,0,0,22,21l-.28.17-2.51-2.52.24-.29a8.14,8.14,0,0,0,0-10.43l-.24-.3,2.51-2.51.28.16a2.64,2.64,0,0,0,1.37.38A2.7,2.7,0,1,0,20.62,3,2.73,2.73,0,0,0,21,4.32l.17.28L18.65,7.12l-.3-.25a8.14,8.14,0,0,0-10.43,0l-.29.25L5.11,4.6l.17-.28A2.7,2.7,0,0,0,3,.25ZM3,1A2,2,0,1,1,1,3,2,2,0,0,1,3,1ZM23.32,1a2,2,0,1,1-2,2A2,2,0,0,1,23.32,1ZM13.14,5.71h0a7.43,7.43,0,0,1,4.94,13l-.65.58,0-.88a4.27,4.27,0,0,0-4.26-4V13.5a2.7,2.7,0,1,0-2.7-2.7h0a2.7,2.7,0,0,0,2.7,2.7v.83a4.26,4.26,0,0,0-4.25,4l0,.88-.65-.58a7.43,7.43,0,0,1,5-13Zm0,3.11a2,2,0,1,1-2,2h0A2,2,0,0,1,13.14,8.82Zm0,6.24a3.54,3.54,0,0,1,3.53,3.53v1.09l-.23.11a7.43,7.43,0,0,1-6.6,0l-.23-.11V18.59a3.53,3.53,0,0,1,3.53-3.53ZM3,21.34a2,2,0,1,1-2,2A2,2,0,0,1,3,21.34Zm20.37,0a2,2,0,1,1-2,2h0A2,2,0,0,1,23.32,21.34Z"/></g></g></svg>