<svg xmlns="http://www.w3.org/2000/svg" width="40.679" height="39.215" viewBox="0 0 40.679 39.215"><g transform="translate(-6.619 -8.35)"><path d="M40.987,30.8A11.227,11.227,0,1,1,52.213,19.577,11.227,11.227,0,0,1,40.987,30.8Zm0-20.829a9.607,9.607,0,1,0,9.607,9.6,9.607,9.607,0,0,0-9.607-9.6Z" transform="translate(-12.119 0)"/><path d="M46.577,58.165a3.087,3.087,0,0,0-3.844-.738l-.886-1.076a2.472,2.472,0,0,0-3.215-.476l-.872.576-.524-.624a2.467,2.467,0,0,0-3.21-.476L28.111,59.2,21.538,56.5a6.192,6.192,0,0,0-6.192.886L6.962,64.053a.81.81,0,1,0,1.01,1.262l8.383-6.668a4.573,4.573,0,0,1,4.592-.653l11.622,4.763a1.5,1.5,0,0,1-1.119,2.782l-7.864-3.067A.81.81,0,1,0,23,63.976l7.84,3.091a3.172,3.172,0,0,0,1.138.214A3.134,3.134,0,0,0,35.1,64.305l.091-.048,8.193-5.349a1.486,1.486,0,0,1,1.667,2.458l-11.1,7.869a5.749,5.749,0,0,1-4.92.843l-9.369-2.639A5.487,5.487,0,0,0,14.7,68.473l-2.524,2.072a.81.81,0,0,0,.514,1.429.786.786,0,0,0,.51-.181l2.548-2.048a3.858,3.858,0,0,1,3.5-.729l9.345,2.634a7.359,7.359,0,0,0,6.278-1.1l11.122-7.869a3.1,3.1,0,0,0,.591-4.52ZM34.874,56.7a.848.848,0,0,1,1.1.167l.4.476L31.464,60.58l-1.538-.633Zm-.181,5.94a3.1,3.1,0,0,0-1.429-1.315l6.235-4.1a.853.853,0,0,1,1.1.162l.753.924Z" transform="translate(0 -24.409)"/><path d="M49.183,20.787a10.879,10.879,0,0,1,2.339.333.81.81,0,1,0,.429-1.562,13.361,13.361,0,0,0-1.958-.348v-1.1a.81.81,0,1,0-1.619,0v1.11c-2.172.3-2.434,1.777-2.434,2.453,0,1.681,1.734,2.382,2.772,2.82l.2.081.3.124c1.048.414,1.505.676,1.505,1.429s-.5,1.119-1.491,1.162h-.171a9.631,9.631,0,0,1-2.705-.653.81.81,0,1,0-.581,1.51,13.122,13.122,0,0,0,2.6.7v1.091a.81.81,0,1,0,1.619,0V28.8a2.636,2.636,0,0,0,2.348-2.7c0-1.905-1.581-2.534-2.524-2.91l-.476-.2c-.743-.3-1.767-.724-1.767-1.319C47.559,21.387,47.559,20.787,49.183,20.787Z" transform="translate(-20.215 -4.687)"/></g></svg>