<svg xmlns="http://www.w3.org/2000/svg" width="12.277" height="12.332" viewBox="0 0 12.277 12.332"><defs><style>.a{fill:#7e7e7e;}</style></defs><g transform="translate(-2.1 -2)"><g transform="translate(2.1 2)"><path class="a" d="M15.4-58a3.362,3.362,0,0,0-3.349,3.367,8.477,8.477,0,0,0,1.579,4.314A16.566,16.566,0,0,0,15.2-48.268a.28.28,0,0,0,.205.089.28.28,0,0,0,.205-.089,16.566,16.566,0,0,0,1.564-2.051,8.477,8.477,0,0,0,1.579-4.314A3.362,3.362,0,0,0,15.4-58Zm0,.561a2.793,2.793,0,0,1,2.788,2.807,8.112,8.112,0,0,1-1.489,4.01,14.411,14.411,0,0,1-1.3,1.733,14.411,14.411,0,0,1-1.3-1.733,8.112,8.112,0,0,1-1.489-4.01A2.793,2.793,0,0,1,15.4-57.439Z" transform="translate(-9.263 58)"/><path class="a" d="M19.476-52a1.77,1.77,0,0,0-1.762,1.771,1.77,1.77,0,0,0,1.762,1.771,1.77,1.77,0,0,0,1.762-1.771A1.77,1.77,0,0,0,19.476-52Zm0,.561a1.2,1.2,0,0,1,1.2,1.21,1.2,1.2,0,0,1-1.2,1.21,1.2,1.2,0,0,1-1.2-1.21A1.2,1.2,0,0,1,19.476-51.439Z" transform="translate(-13.338 53.682)"/><path class="a" d="M3.679-27.271a3.688,3.688,0,0,0-1.118.628,1.2,1.2,0,0,0-.462.879,1.264,1.264,0,0,0,.569.969,4.476,4.476,0,0,0,1.34.655,14.086,14.086,0,0,0,4.229.576,14.086,14.086,0,0,0,4.229-.576,4.476,4.476,0,0,0,1.34-.655,1.264,1.264,0,0,0,.569-.969,1.193,1.193,0,0,0-.455-.874,3.641,3.641,0,0,0-1.1-.626.28.28,0,0,0-.363.16.28.28,0,0,0,.16.363,3.175,3.175,0,0,1,.934.522.636.636,0,0,1,.267.455c0,.15-.095.326-.352.526a4.022,4.022,0,0,1-1.171.565,13.628,13.628,0,0,1-4.055.549,13.629,13.629,0,0,1-4.055-.549,4.022,4.022,0,0,1-1.171-.565c-.257-.2-.352-.376-.352-.526a.641.641,0,0,1,.272-.459,3.219,3.219,0,0,1,.948-.526.28.28,0,0,0,.161-.362A.3.3,0,0,0,3.679-27.271Z" transform="translate(-2.1 35.896)"/><path class="a" d="M11.493-29.672a3.063,3.063,0,0,0-1.007.523,1.054,1.054,0,0,0-.424.788,1.027,1.027,0,0,0,.377.748,2.741,2.741,0,0,0,.865.5,7.668,7.668,0,0,0,2.664.425,7.668,7.668,0,0,0,2.664-.425,2.741,2.741,0,0,0,.865-.5,1.027,1.027,0,0,0,.377-.748,1.054,1.054,0,0,0-.424-.788,3.062,3.062,0,0,0-1.007-.523.28.28,0,0,0-.355.177.28.28,0,0,0,.177.355,2.587,2.587,0,0,1,.823.42.5.5,0,0,1,.224.36.464.464,0,0,1-.193.333,2.261,2.261,0,0,1-.689.388,7.2,7.2,0,0,1-2.464.388A7.2,7.2,0,0,1,11.5-27.64a2.261,2.261,0,0,1-.689-.388.464.464,0,0,1-.193-.333.5.5,0,0,1,.224-.36,2.588,2.588,0,0,1,.823-.42.28.28,0,0,0,.177-.355A.293.293,0,0,0,11.493-29.672Z" transform="translate(-7.831 37.622)"/></g></g></svg>