<svg xmlns="http://www.w3.org/2000/svg" width="11.966" height="11.878" viewBox="0 0 11.966 11.878"><defs><style>.a{fill:#7e7e7e;}</style></defs><g transform="translate(-3.039 -5.28)"><g transform="translate(3.039 5.28)"><path class="a" d="M16.826,16.714H15.511v-.986a1.965,1.965,0,0,0,1.222-2.056c0-1.168-.634-2.082-1.445-2.082s-1.445.915-1.445,2.082a1.964,1.964,0,0,0,1.222,2.056v.986H12.783V5.5a.222.222,0,0,0-.222-.222H6.334a.222.222,0,0,0-.222.222V16.714H5.305a.222.222,0,1,0,0,.445H16.826a.222.222,0,1,0,0-.445Zm-2.538-3.042c0-.888.458-1.638,1-1.638s1,.75,1,1.638a1.7,1.7,0,0,1-.778,1.594V13.671a.222.222,0,0,0-.445,0v1.593A1.7,1.7,0,0,1,14.289,13.671ZM9.448,15.885h.309v.828H9.139v-.828Zm.753.828v-1.05a.222.222,0,0,0-.222-.222H8.917a.222.222,0,0,0-.222.222v1.05H6.557V5.725h5.782V16.714ZM7.873,7.048v.382a.222.222,0,0,1-.445,0V7.048a.222.222,0,1,1,.445,0Zm1.2,0v.382a.222.222,0,0,1-.445,0V7.048a.222.222,0,0,1,.445,0Zm1.2,0v.382a.222.222,0,0,1-.445,0V7.048a.222.222,0,1,1,.445,0Zm1.2,0v.382a.222.222,0,0,1-.445,0V7.048a.222.222,0,1,1,.445,0ZM7.873,8.8V9.18a.222.222,0,0,1-.445,0V8.8a.222.222,0,1,1,.445,0Zm1.2,0V9.18a.222.222,0,0,1-.445,0V8.8a.222.222,0,0,1,.445,0Zm1.2,0V9.18a.222.222,0,0,1-.445,0V8.8a.222.222,0,1,1,.445,0Zm1.2,0V9.18a.222.222,0,0,1-.445,0V8.8a.222.222,0,1,1,.445,0Zm-3.593,1.75v.382a.222.222,0,0,1-.445,0v-.382a.222.222,0,1,1,.445,0Zm1.2,0v.382a.222.222,0,0,1-.445,0v-.382a.222.222,0,1,1,.445,0Zm1.2,0v.382a.222.222,0,0,1-.445,0v-.382a.222.222,0,1,1,.445,0Zm1.2,0v.382a.222.222,0,0,1-.445,0v-.382a.222.222,0,1,1,.445,0ZM7.873,12.3v.382a.222.222,0,1,1-.445,0V12.3a.222.222,0,1,1,.445,0Zm1.2,0v.382a.222.222,0,0,1-.445,0V12.3a.222.222,0,0,1,.445,0Zm1.2,0v.382a.222.222,0,1,1-.445,0V12.3a.222.222,0,1,1,.445,0Zm1.2,0v.382a.222.222,0,1,1-.445,0V12.3a.222.222,0,1,1,.445,0Zm-3.593,1.75v.382a.222.222,0,0,1-.445,0v-.382a.222.222,0,1,1,.445,0Zm1.2,0v.382a.222.222,0,0,1-.445,0v-.382a.222.222,0,1,1,.445,0Zm1.2,0v.382a.222.222,0,0,1-.445,0v-.382a.222.222,0,1,1,.445,0Zm1.2,0v.382a.222.222,0,0,1-.445,0v-.382a.222.222,0,1,1,.445,0Z" transform="translate(-5.083 -5.28)"/></g></g></svg>