<svg xmlns="http://www.w3.org/2000/svg" width="40.522" height="35.886" viewBox="0 0 40.522 35.886"><path d="M51.406,26.825a.91.91,0,0,0,.054-.207s0-.007,0-.011a.9.9,0,0,0,0-.224c0-.019-.006-.038-.01-.057a.924.924,0,0,0-.06-.193c0-.007,0-.015-.007-.022a.064.064,0,0,1,0-.006.939.939,0,0,0-.1-.169l-8.1-10.178c-.005-.007-.012-.011-.018-.018a.976.976,0,0,0-.1-.1c-.015-.013-.029-.027-.045-.04a.814.814,0,0,0-.117-.074c-.017-.009-.032-.021-.049-.029l-.009-.005a.9.9,0,0,0-.367-.081H19.947a.9.9,0,0,0-.368.081l-.009.005c-.017.008-.033.02-.049.029a.84.84,0,0,0-.118.074c-.016.012-.029.026-.044.039a.921.921,0,0,0-.1.1c-.006.006-.012.011-.018.018l-8.1,10.178a.921.921,0,0,0-.1.169.065.065,0,0,0,0,.006c0,.007,0,.015-.007.022a.9.9,0,0,0-.06.192c0,.019-.008.038-.01.057a.922.922,0,0,0,0,.224s0,.008,0,.011a.951.951,0,0,0,.054.207c.007.018.015.035.023.053a.9.9,0,0,0,.108.182s.005.01.009.014l.007.009,0,0L30.5,50.966h0a.875.875,0,0,0,.133.133l.007,0,.013.011.012.008a.906.906,0,0,0,.214.115c.011,0,.019.012.03.016s.024,0,.035.006a.892.892,0,0,0,.258.043h.005a.892.892,0,0,0,.258-.043c.011,0,.024,0,.035-.006s.019-.011.03-.016a.873.873,0,0,0,.214-.115l.012-.007.013-.011.007,0a.9.9,0,0,0,.133-.133h0l19.344-23.88,0,0,.007-.009s.005-.01.008-.014a.9.9,0,0,0,.109-.182A.493.493,0,0,0,51.406,26.825ZM19.748,18.046,23.2,25.594H13.738Zm1.625-.814h8.188l-4.752,7.51Zm5.046,8.362,4.791-7.572L36,25.594Zm10.19,1.816-5.4,19.57-5.4-19.57h10.8Zm1-2.67-4.75-7.508h8.185Zm5.06-6.694,6.01,7.548H39.215ZM23.924,27.41l5.252,19.034L13.758,27.41ZM33.24,46.444,38.492,27.41H48.658Z" transform="translate(-10.946 -15.416)"/></svg>