<svg xmlns="http://www.w3.org/2000/svg" width="33.537" height="41.196" viewBox="0 0 33.537 41.196"><defs><style>.a{stroke:#000;stroke-width:0.5px;}</style></defs><g transform="translate(-5.882 -1.75)"><path class="a" d="M6.75,14.02a3.422,3.422,0,0,1,4.272,2.16l6.483,18.755v0A3.956,3.956,0,0,0,21.243,37.6H38.355a.462.462,0,1,0,0-.925H21.242a3.028,3.028,0,0,1-2.863-2.039l-.853-2.468H34.862a3.959,3.959,0,0,0,3.954-3.954V18.617a.463.463,0,0,0-.462-.462H12.684L11.9,15.877h0a4.344,4.344,0,0,0-5.42-2.74.463.463,0,0,0,.275.883Zm31.142,5.059v9.133a3.032,3.032,0,0,1-3.029,3.029H17.206L13,19.08Z" transform="translate(0 -0.821)"/><path class="a" d="M19.217,40.916a2.351,2.351,0,1,0,2.35,2.352A2.355,2.355,0,0,0,19.217,40.916Zm0,3.777a1.426,1.426,0,1,1,1.425-1.427A1.428,1.428,0,0,1,19.217,44.693Z" transform="translate(-0.805 -2.922)"/><path class="a" d="M39.118,40.916a2.351,2.351,0,1,0,2.35,2.352A2.355,2.355,0,0,0,39.118,40.916Zm0,3.777a1.426,1.426,0,1,1,1.425-1.427A1.427,1.427,0,0,1,39.118,44.693Z" transform="translate(-2.299 -2.922)"/><path class="a" d="M26.744,12.813a.462.462,0,0,0,.8,0l1.7-2.95a.462.462,0,0,0-.4-.694H27.606V2.462a.462.462,0,0,0-.925,0V9.168H25.439a.462.462,0,0,0-.4.694Zm1.3-2.72-.9,1.563-.9-1.563Z" transform="translate(-1.414 0)"/></g></svg>