<svg xmlns="http://www.w3.org/2000/svg" width="36.259" height="40.32" viewBox="0 0 36.259 40.32"><defs><style>.a{fill:none;stroke:#000;stroke-linecap:round;stroke-linejoin:round;stroke-width:1.5px;}</style></defs><g transform="translate(-2.25 -1.204)"><line class="a" x1="17.38" y1="10.022" transform="translate(11.69 6.266)"/><path class="a" d="M37.759,29.033V13.584a3.862,3.862,0,0,0-1.931-3.341L22.311,2.519a3.862,3.862,0,0,0-3.862,0L4.931,10.244A3.862,3.862,0,0,0,3,13.584V29.033a3.862,3.862,0,0,0,1.931,3.341L18.448,40.1a3.862,3.862,0,0,0,3.862,0l13.517-7.724A3.862,3.862,0,0,0,37.759,29.033Z"/><path class="a" d="M3.27,6.96l16.858,9.752L36.986,6.96" transform="translate(0.251 4.616)"/><line class="a" y1="19.465" transform="translate(20.38 21.309)"/></g></svg>