<svg xmlns="http://www.w3.org/2000/svg" xmlns:xlink="http://www.w3.org/1999/xlink" width="64.613" height="43.247" viewBox="0 0 64.613 43.247">
  <defs>
    <filter id="Ellipse_70" x="26.202" y="6.61" width="16.954" height="16.954" filterUnits="userSpaceOnUse">
      <feOffset dx="3" dy="3" input="SourceAlpha"/>
      <feGaussianBlur stdDeviation="1" result="blur"/>
      <feFlood flood-opacity="0.2"/>
      <feComposite operator="in" in2="blur"/>
      <feComposite in="SourceGraphic"/>
    </filter>
  </defs>
  <g id="Group_1529" data-name="Group 1529" transform="translate(-139.742 -224)">
    <g id="Group_1528" data-name="Group 1528" transform="translate(139.742 224)">
      <path id="Path_736" data-name="Path 736" d="M1452.871,649.376a4.057,4.057,0,1,0-4-4.065v13.1a2.163,2.163,0,0,1-.634,1.621,2.245,2.245,0,0,1-1.635.619,2.17,2.17,0,0,1-2.236-2.239v-13.1a8.562,8.562,0,1,1,8.51,8.564,2.156,2.156,0,0,1-1.618-.634,2.242,2.242,0,0,1-.617-1.635,2.119,2.119,0,0,1,2.236-2.236Z" transform="translate(-1443.204 -636.763)"/>
      <path id="Path_737" data-name="Path 737" d="M1526.99,641.318a2.195,2.195,0,0,1-1.455,2.334,7.1,7.1,0,0,0-2.605,1.686,7.5,7.5,0,1,0,12.748,5.318,8.543,8.543,0,0,0-.057-1,2.245,2.245,0,0,1,1.7-2.437h0a2.248,2.248,0,0,1,2.778,1.916,13.5,13.5,0,0,1,.084,1.521,11.943,11.943,0,1,1-16.1-11.273,2.172,2.172,0,0,1,2.889,1.76Z" transform="translate(-1496.359 -638.58)"/>
      <path id="Path_738" data-name="Path 738" d="M1623.438,649.376a4.057,4.057,0,1,0-4-4.065v13.1a2.162,2.162,0,0,1-.634,1.621,2.245,2.245,0,0,1-1.635.619,2.169,2.169,0,0,1-2.236-2.239v-13.1a8.563,8.563,0,1,1,8.509,8.564,2.157,2.157,0,0,1-1.618-.634,2.244,2.244,0,0,1-.617-1.635,2.119,2.119,0,0,1,2.235-2.236Z" transform="translate(-1569.256 -636.763)"/>
      <path id="Path_739" data-name="Path 739" d="M1568.849,655.714a.522.522,0,0,1-.437-.235,7.407,7.407,0,0,0-5.372-3.3.522.522,0,1,1,.117-1.037,8.449,8.449,0,0,1,6.128,3.764.522.522,0,0,1-.436.809Z" transform="translate(-1530.566 -647.362)"/>
      <path id="Path_740" data-name="Path 740" d="M1573.075,643.567a.523.523,0,0,1-.454-.263,11.217,11.217,0,0,0-8.646-5.592.522.522,0,1,1,.1-1.039,12.265,12.265,0,0,1,9.453,6.113.522.522,0,0,1-.452.781Z" transform="translate(-1531.251 -636.671)"/>
      <path id="Path_741" data-name="Path 741" d="M1571.314,649.349a.521.521,0,0,1-.435-.233,9.311,9.311,0,0,0-6.606-4.085A.522.522,0,0,1,1564.4,644a10.353,10.353,0,0,1,7.346,4.541.522.522,0,0,1-.434.812Z" transform="translate(-1531.482 -642.081)"/>
      <path id="Path_742" data-name="Path 742" d="M1500.755,754.7H1443.71a3.789,3.789,0,0,1-3.784-3.784v-9.269a3.789,3.789,0,0,1,3.784-3.784h57.044a3.789,3.789,0,0,1,3.784,3.784v9.269A3.789,3.789,0,0,1,1500.755,754.7Zm-57.044-15.533a2.482,2.482,0,0,0-2.479,2.479v9.269a2.482,2.482,0,0,0,2.479,2.479h57.044a2.482,2.482,0,0,0,2.479-2.479v-9.269a2.482,2.482,0,0,0-2.479-2.479Z" transform="translate(-1439.926 -711.454)"/>
      <g id="Group_1527" data-name="Group 1527" transform="translate(4.065 31.074)">
        <path id="Path_743" data-name="Path 743" d="M1458.435,763.949a.709.709,0,0,1-.2-.525v-6.1h-2.056q-.677,0-.678-.6t.678-.6h5.569q.678,0,.678.6t-.678.6h-2.056v6.1a.68.68,0,0,1-.723.723A.725.725,0,0,1,1458.435,763.949Z" transform="translate(-1455.503 -756.024)"/>
        <path id="Path_744" data-name="Path 744" d="M1521.747,763.322a.561.561,0,0,1-.209.44.711.711,0,0,1-.48.181.625.625,0,0,1-.588-.4l-.678-1.514h-3.976l-.678,1.514a.641.641,0,0,1-.248.3.663.663,0,0,1-.35.1.718.718,0,0,1-.474-.181.555.555,0,0,1-.214-.44.693.693,0,0,1,.068-.294l3.118-6.7a.728.728,0,0,1,.311-.345.9.9,0,0,1,.892,0,.729.729,0,0,1,.311.345l3.129,6.7A.693.693,0,0,1,1521.747,763.322Zm-5.434-2.417h2.982l-1.491-3.355Z" transform="translate(-1498.623 -755.832)"/>
        <path id="Path_745" data-name="Path 745" d="M1587.762,759.651a.533.533,0,0,1,.158.4v2.429a1.451,1.451,0,0,1-.135.734.989.989,0,0,1-.553.35,5.84,5.84,0,0,1-1.051.248,7.72,7.72,0,0,1-1.152.09,4.445,4.445,0,0,1-2.135-.486,3.28,3.28,0,0,1-1.384-1.406,4.692,4.692,0,0,1-.48-2.2,4.64,4.64,0,0,1,.48-2.174,3.349,3.349,0,0,1,1.361-1.412,4.2,4.2,0,0,1,2.079-.492,3.906,3.906,0,0,1,2.609.859.885.885,0,0,1,.2.249.717.717,0,0,1-.073.712.407.407,0,0,1-.328.169.619.619,0,0,1-.226-.039,1.245,1.245,0,0,1-.237-.13,3.6,3.6,0,0,0-.926-.491,3.1,3.1,0,0,0-.971-.141,2.318,2.318,0,0,0-1.859.729,3.24,3.24,0,0,0-.627,2.163q0,2.938,2.576,2.937a5.678,5.678,0,0,0,1.536-.215v-2h-1.276a.615.615,0,0,1-.423-.135.56.56,0,0,1,0-.768.616.616,0,0,1,.423-.136h2A.577.577,0,0,1,1587.762,759.651Z" transform="translate(-1548.269 -755.736)"/>
        <path id="Path_746" data-name="Path 746" d="M1654.117,759.651a.533.533,0,0,1,.158.4v2.429a1.449,1.449,0,0,1-.136.734.989.989,0,0,1-.553.35,5.843,5.843,0,0,1-1.051.248,7.715,7.715,0,0,1-1.152.09,4.445,4.445,0,0,1-2.135-.486,3.278,3.278,0,0,1-1.384-1.406,4.692,4.692,0,0,1-.48-2.2,4.64,4.64,0,0,1,.48-2.174,3.348,3.348,0,0,1,1.361-1.412,4.2,4.2,0,0,1,2.078-.492,3.906,3.906,0,0,1,2.61.859.886.886,0,0,1,.2.249.715.715,0,0,1-.073.712.407.407,0,0,1-.328.169.615.615,0,0,1-.226-.039,1.242,1.242,0,0,1-.237-.13,3.61,3.61,0,0,0-.926-.491,3.1,3.1,0,0,0-.972-.141,2.317,2.317,0,0,0-1.858.729,3.239,3.239,0,0,0-.627,2.163q0,2.938,2.576,2.937a5.677,5.677,0,0,0,1.536-.215v-2H1651.7a.616.616,0,0,1-.424-.135.561.561,0,0,1,0-.768.617.617,0,0,1,.424-.136h2A.577.577,0,0,1,1654.117,759.651Z" transform="translate(-1597.306 -755.736)"/>
      </g>
      <g transform="matrix(1, 0, 0, 1, 0, 0)" filter="url(#Ellipse_70)">
        <circle id="Ellipse_70-2" data-name="Ellipse 70" cx="5.477" cy="5.477" r="5.477" transform="translate(26.2 6.61)" fill="#ff0"/>
      </g>
    </g>
  </g>
</svg>
