<svg xmlns="http://www.w3.org/2000/svg" width="30.118" height="33.463" viewBox="0 0 30.118 33.463"><defs><style>.a{fill:none;stroke:#000;stroke-linecap:round;stroke-linejoin:round;stroke-width:1.5px;}</style></defs><g transform="translate(-2.25 -1.211)"><line class="a" x1="14.309" y1="8.252" transform="translate(10.155 5.512)"/><path class="a" d="M31.618,24.258V11.538a3.18,3.18,0,0,0-1.59-2.751L18.9,2.428a3.18,3.18,0,0,0-3.18,0L4.59,8.788A3.18,3.18,0,0,0,3,11.538V24.258a3.18,3.18,0,0,0,1.59,2.751l11.129,6.36a3.18,3.18,0,0,0,3.18,0l11.129-6.36A3.18,3.18,0,0,0,31.618,24.258Z" transform="translate(0 0)"/><path class="a" d="M3.27,6.96l13.88,8.029L31.03,6.96" transform="translate(0.159 2.925)"/><line class="a" y1="16.026" transform="translate(17.309 17.898)"/></g></svg>
