d<svg xmlns="http://www.w3.org/2000/svg" width="24.795" height="24.795" viewBox="0 0 24.795 24.795"><defs><style>.a{fill:#afb1be;}</style></defs><path class="a" d="M374.2,6.974a.775.775,0,0,1-.775-.775V2.228a.679.679,0,0,0-.678-.678h-3.971a.775.775,0,0,1,0-1.55h3.971a2.23,2.23,0,0,1,2.228,2.228V6.2A.775.775,0,0,1,374.2,6.974Z" transform="translate(-350.179)"/><path class="a" d="M.775,6.974A.775.775,0,0,1,0,6.2V2.228A2.23,2.23,0,0,1,2.228,0H6.2a.775.775,0,0,1,0,1.55H2.228a.679.679,0,0,0-.678.678V6.2A.775.775,0,0,1,.775,6.974Z"/><path class="a" d="M6.2,374.974H2.228A2.23,2.23,0,0,1,0,372.746v-3.971a.775.775,0,0,1,1.55,0v3.971a.679.679,0,0,0,.678.678H6.2a.775.775,0,1,1,0,1.55Z" transform="translate(0 -350.179)"/><path class="a" d="M372.746,374.974h-3.971a.775.775,0,1,1,0-1.55h3.971a.679.679,0,0,0,.678-.678v-3.971a.775.775,0,0,1,1.55,0v3.971A2.23,2.23,0,0,1,372.746,374.974Z" transform="translate(-350.179 -350.179)"/><path class="a" d="M70.3,72.523H66.228A2.23,2.23,0,0,1,64,70.3V66.228A2.23,2.23,0,0,1,66.228,64H70.3a2.23,2.23,0,0,1,2.228,2.228V70.3A2.23,2.23,0,0,1,70.3,72.523ZM66.228,65.55a.679.679,0,0,0-.678.678V70.3a.679.679,0,0,0,.678.678H70.3a.679.679,0,0,0,.678-.678V66.228a.679.679,0,0,0-.678-.678Z" transform="translate(-60.901 -60.901)"/><path class="a" d="M70.3,280.523H66.228A2.23,2.23,0,0,1,64,278.3v-4.068A2.23,2.23,0,0,1,66.228,272H70.3a2.23,2.23,0,0,1,2.228,2.228V278.3A2.23,2.23,0,0,1,70.3,280.523Zm-4.068-6.974a.679.679,0,0,0-.678.678V278.3a.679.679,0,0,0,.678.678H70.3a.679.679,0,0,0,.678-.678v-4.068a.679.679,0,0,0-.678-.678Z" transform="translate(-60.901 -258.828)"/><path class="a" d="M278.3,72.523h-4.068A2.23,2.23,0,0,1,272,70.3V66.228A2.23,2.23,0,0,1,274.228,64H278.3a2.23,2.23,0,0,1,2.228,2.228V70.3A2.23,2.23,0,0,1,278.3,72.523Zm-4.068-6.974a.679.679,0,0,0-.678.678V70.3a.679.679,0,0,0,.678.678H278.3a.679.679,0,0,0,.678-.678V66.228a.679.679,0,0,0-.678-.678Z" transform="translate(-258.828 -60.901)"/><path class="a" d="M279.264,275.874h-1.84v-2.615A1.261,1.261,0,0,0,276.165,272h-2.906A1.261,1.261,0,0,0,272,273.259v2.906a1.261,1.261,0,0,0,1.259,1.259h2.615v1.84a1.261,1.261,0,0,0,1.259,1.259h2.131a1.261,1.261,0,0,0,1.259-1.259v-2.131A1.261,1.261,0,0,0,279.264,275.874Zm-5.714-2.325h2.325v2.325H273.55Zm5.424,5.424h-1.55v-1.55h1.55Z" transform="translate(-258.828 -258.828)"/><path class="a" d="M129.55,130.325h-.775a.775.775,0,0,1-.775-.775v-.775a.775.775,0,0,1,.775-.775h.775a.775.775,0,0,1,.775.775v.775A.775.775,0,0,1,129.55,130.325Z" transform="translate(-121.801 -121.801)"/><path class="a" d="M337.55,130.325h-.775a.775.775,0,0,1-.775-.775v-.775a.775.775,0,0,1,.775-.775h.775a.775.775,0,0,1,.775.775v.775A.775.775,0,0,1,337.55,130.325Z" transform="translate(-319.728 -121.801)"/><path class="a" d="M129.55,338.324h-.775a.775.775,0,0,1-.775-.775v-.775a.775.775,0,0,1,.775-.775h.775a.775.775,0,0,1,.775.775v.775A.775.775,0,0,1,129.55,338.324Z" transform="translate(-121.801 -319.728)"/></svg>
