<svg xmlns="http://www.w3.org/2000/svg" width="17.956" height="24.65" viewBox="0 0 17.956 24.65"><defs><style>.a{fill:#f3f4f7;}</style></defs><path class="a" d="M23.059,26.65a.91.91,0,0,1-.494-.15l-7.587-4.956L7.392,26.5a.913.913,0,0,1-.918.041A.878.878,0,0,1,6,25.77V2.88A.889.889,0,0,1,6.9,2H23.059a.889.889,0,0,1,.9.88V25.77a.878.878,0,0,1-.476.775A.912.912,0,0,1,23.059,26.65Zm-8.08-7.043a.91.91,0,0,1,.494.15l6.689,4.4V3.761H7.8V24.123l6.689-4.4A.912.912,0,0,1,14.978,19.607Z" transform="translate(-6 -2)"/></svg>